<?xml version="1.0" encoding="utf-8"?>
<!-- Generator: Adobe Illustrator 15.0.0, SVG Export Plug-In . SVG Version: 6.00 Build 0)  -->
<!DOCTYPE svg PUBLIC "-//W3C//DTD SVG 1.1//EN" "http://www.w3.org/Graphics/SVG/1.1/DTD/svg11.dtd">
<svg version="1.1" id="Layer_1" xmlns="http://www.w3.org/2000/svg" xmlns:xlink="http://www.w3.org/1999/xlink" x="0px" y="0px"
	 width="27.193px" height="26.824px" viewBox="0 0 27.193 26.824" enable-background="new 0 0 27.193 26.824" xml:space="preserve">
<path fill="#80D443" d="M13.386,23.277c-0.659,0-1.29-0.154-1.77-0.432l-5.788-3.337c-0.992-0.575-1.769-1.922-1.769-3.072V9.756
	c0-1.146,0.777-2.494,1.769-3.073l5.788-3.336c0.958-0.561,2.583-0.561,3.545,0l5.789,3.336c0.991,0.579,1.77,1.927,1.77,3.073
	v6.681c0,1.148-0.778,2.497-1.77,3.072l-5.789,3.337C14.68,23.123,14.051,23.277,13.386,23.277 M13.386,4.521
	c-0.432,0-0.847,0.094-1.136,0.262L6.76,7.957C6.154,8.305,5.62,9.224,5.62,9.926v6.34c0,0.703,0.533,1.624,1.14,1.976l5.491,3.165
	c0.579,0.338,1.699,0.338,2.275,0l5.492-3.171c0.608-0.346,1.14-1.267,1.14-1.97v-6.34c0-0.702-0.531-1.621-1.14-1.969l-5.492-3.173
	C14.236,4.616,13.823,4.521,13.386,4.521"/>
</svg>
