<svg id="about_copy" data-name="about copy" xmlns="http://www.w3.org/2000/svg" viewBox="0 0 95.96 21.08"><defs><style>.cls-1{fill:#1cb24b;}.cls-2{fill:#dae5ce;}</style></defs><title>Logo-Plain</title><path class="cls-1" d="M37.69,20.76a2.85,2.85,0,0,1-1.41-.35l-4.61-2.66a3.08,3.08,0,0,1-1.41-2.44V10a3.09,3.09,0,0,1,1.41-2.45l4.61-2.66a3.16,3.16,0,0,1,2.82,0l4.61,2.66A3.09,3.09,0,0,1,45.12,10v5.32a3.08,3.08,0,0,1-1.41,2.44L39.1,20.41A2.85,2.85,0,0,1,37.69,20.76Zm0-15.3a2,2,0,0,0-1,.22l-4.6,2.66a2.17,2.17,0,0,0-1,1.65v5.32a2.18,2.18,0,0,0,1,1.66l4.6,2.65a2.25,2.25,0,0,0,1.91,0L43.25,17a2.17,2.17,0,0,0,1-1.65V10a2.17,2.17,0,0,0-1-1.65L38.65,5.68A2,2,0,0,0,37.69,5.46Z"/><path class="cls-2" d="M95.18,12.24L88.89,8.6,95.18,5a0.46,0.46,0,1,0-.46-0.79L88,8.07,81.24,4.19a0.46,0.46,0,1,0-.45.79L87.07,8.6l-6.29,3.63a0.45,0.45,0,0,0-.17.62,0.46,0.46,0,0,0,.62.17L88,9.13,94.72,13a0.46,0.46,0,0,0,.23.06,0.45,0.45,0,0,0,.39-0.23A0.45,0.45,0,0,0,95.18,12.24Z"/><path class="cls-2" d="M31.94,4.19L26.15,0.84a3.09,3.09,0,0,0-2.82,0L18.72,3.5a3.08,3.08,0,0,0-1.41,2.44v5.32a3.08,3.08,0,0,0,1.41,2.44l5.79,3.34a0.46,0.46,0,0,0,.62-0.17A0.46,0.46,0,0,0,25,16.26l-5.79-3.34a2.18,2.18,0,0,1-1-1.65V5.95a1.65,1.65,0,0,1,.1-0.53L24.51,9a0.45,0.45,0,0,0,.23.06A0.46,0.46,0,0,0,25,8.21L18.79,4.63a1.64,1.64,0,0,1,.39-0.33l4.61-2.66a2.17,2.17,0,0,1,1.91,0L31.48,5A0.46,0.46,0,1,0,31.94,4.19Z"/><path class="cls-2" d="M61.39,13.08a0.45,0.45,0,0,1-.46-0.45V5.95a2.18,2.18,0,0,0-1-1.65L55.37,1.63a2.18,2.18,0,0,0-1.91,0L48.86,4.29a2.17,2.17,0,0,0-1,1.65v6.68a0.46,0.46,0,0,1-.91,0V5.95A3.08,3.08,0,0,1,48.4,3.5L53,0.84a3.08,3.08,0,0,1,2.82,0L60.43,3.5a3.08,3.08,0,0,1,1.41,2.44v6.68A0.45,0.45,0,0,1,61.39,13.08Z"/><path class="cls-2" d="M78.36,4.35a0.46,0.46,0,0,0-.62-0.17L71,8.07,64.26,4.19A0.46,0.46,0,1,0,63.8,5l6.77,3.91v7.79a0.46,0.46,0,1,0,.91,0V8.85L78.19,5A0.46,0.46,0,0,0,78.36,4.35Z"/><path class="cls-2" d="M15.09,4.19L9.3,0.84a3.09,3.09,0,0,0-2.82,0L1.87,3.5A3.08,3.08,0,0,0,.46,5.95v5.32a3.07,3.07,0,0,0,1.41,2.44l5.79,3.34a0.47,0.47,0,0,0,.23.06,0.46,0.46,0,0,0,.23-0.85L2.33,12.92a2.18,2.18,0,0,1-1-1.65V5.95a1.66,1.66,0,0,1,.1-0.53L7.66,9a0.46,0.46,0,0,0,.46-0.79L1.93,4.63a1.63,1.63,0,0,1,.4-0.34L6.94,1.63a2.17,2.17,0,0,1,1.91,0L14.63,5A0.46,0.46,0,0,0,15.09,4.19Z"/><path class="cls-1" d="M37.69,20.76a2.85,2.85,0,0,1-1.41-.35l-4.61-2.66a3.08,3.08,0,0,1-1.41-2.44V10a3.09,3.09,0,0,1,1.41-2.45l4.61-2.66a3.16,3.16,0,0,1,2.82,0l4.61,2.66A3.09,3.09,0,0,1,45.12,10v5.32a3.08,3.08,0,0,1-1.41,2.44L39.1,20.41A2.85,2.85,0,0,1,37.69,20.76Zm0-15.3a2,2,0,0,0-1,.22l-4.6,2.66a2.17,2.17,0,0,0-1,1.65v5.32a2.18,2.18,0,0,0,1,1.66l4.6,2.65a2.25,2.25,0,0,0,1.91,0L43.25,17a2.17,2.17,0,0,0,1-1.65V10a2.17,2.17,0,0,0-1-1.65L38.65,5.68A2,2,0,0,0,37.69,5.46Z"/><path class="cls-2" d="M95.18,12.24L88.89,8.6,95.18,5a0.46,0.46,0,1,0-.46-0.79L88,8.07,81.24,4.19a0.46,0.46,0,1,0-.45.79L87.07,8.6l-6.29,3.63a0.45,0.45,0,0,0-.17.62,0.46,0.46,0,0,0,.62.17L88,9.13,94.72,13a0.46,0.46,0,0,0,.23.06,0.45,0.45,0,0,0,.39-0.23A0.45,0.45,0,0,0,95.18,12.24Z"/><path class="cls-2" d="M31.94,4.19L26.15,0.84a3.09,3.09,0,0,0-2.82,0L18.72,3.5a3.08,3.08,0,0,0-1.41,2.44v5.32a3.08,3.08,0,0,0,1.41,2.44l5.79,3.34a0.46,0.46,0,0,0,.62-0.17A0.46,0.46,0,0,0,25,16.26l-5.79-3.34a2.18,2.18,0,0,1-1-1.65V5.95a1.65,1.65,0,0,1,.1-0.53L24.51,9a0.45,0.45,0,0,0,.23.06A0.46,0.46,0,0,0,25,8.21L18.79,4.63a1.64,1.64,0,0,1,.39-0.33l4.61-2.66a2.17,2.17,0,0,1,1.91,0L31.48,5A0.46,0.46,0,1,0,31.94,4.19Z"/><path class="cls-2" d="M61.39,13.08a0.45,0.45,0,0,1-.46-0.45V5.95a2.18,2.18,0,0,0-1-1.65L55.37,1.63a2.18,2.18,0,0,0-1.91,0L48.86,4.29a2.17,2.17,0,0,0-1,1.65v6.68a0.46,0.46,0,0,1-.91,0V5.95A3.08,3.08,0,0,1,48.4,3.5L53,0.84a3.08,3.08,0,0,1,2.82,0L60.43,3.5a3.08,3.08,0,0,1,1.41,2.44v6.68A0.45,0.45,0,0,1,61.39,13.08Z"/><path class="cls-2" d="M78.36,4.35a0.46,0.46,0,0,0-.62-0.17L71,8.07,64.26,4.19A0.46,0.46,0,1,0,63.8,5l6.77,3.91v7.79a0.46,0.46,0,1,0,.91,0V8.85L78.19,5A0.46,0.46,0,0,0,78.36,4.35Z"/><path class="cls-2" d="M15.09,4.19L9.3,0.84a3.09,3.09,0,0,0-2.82,0L1.87,3.5A3.08,3.08,0,0,0,.46,5.95v5.32a3.07,3.07,0,0,0,1.41,2.44l5.79,3.34a0.47,0.47,0,0,0,.23.06,0.46,0.46,0,0,0,.23-0.85L2.33,12.92a2.18,2.18,0,0,1-1-1.65V5.95a1.66,1.66,0,0,1,.1-0.53L7.66,9a0.46,0.46,0,0,0,.46-0.79L1.93,4.63a1.63,1.63,0,0,1,.4-0.34L6.94,1.63a2.17,2.17,0,0,1,1.91,0L14.63,5A0.46,0.46,0,0,0,15.09,4.19Z"/></svg>