<svg id="about_copy" data-name="about copy" xmlns="http://www.w3.org/2000/svg" xmlns:xlink="http://www.w3.org/1999/xlink" viewBox="0 0 310.7 93.11"><defs><style>.cls-1{fill:none;}.cls-2{font-size:22px;fill:#384239;font-family:Seravek;}.cls-3{letter-spacing:-1px;}.cls-4{letter-spacing:-2px;}.cls-5{white-space:pre;}.cls-6{clip-path:url(#clip-path);}.cls-7{clip-path:url(#clip-path-2);}.cls-8{clip-path:url(#clip-path-3);}.cls-9{fill:#1cb24b;}.cls-10{fill:#dae5ce;}.cls-11{fill:#252c26;}</style><clipPath id="clip-path"><rect class="cls-1" x="-193.22" y="209.57" width="1023.51" height="545.87"/></clipPath><clipPath id="clip-path-2"><polygon class="cls-1" points="828.9 1336.32 828.9 74.59 991.62 74.59 263.19 1336.32 828.9 1336.32"/></clipPath><clipPath id="clip-path-3"><rect id="SVGID" class="cls-1" x="-194.97" y="212.91" width="1024" height="765.39"/></clipPath></defs><title>Logo</title><text class="cls-2" transform="translate(12.86 -1251.27)">“<tspan x="8.71" y="0">QuNexus is the mo</tspan><tspan x="183.96" y="0">s</tspan><tspan x="193.22" y="0">t importa</tspan><tspan x="280.45" y="0">n</tspan><tspan x="292.33" y="0">t evo</tspan><tspan x="337.76" y="0">l</tspan><tspan x="343.77" y="0">ution in </tspan><tspan x="419.07" y="0">k</tspan><tspan x="429.1" y="0">eyboa</tspan><tspan x="483.75" y="0">r</tspan><tspan x="491.3" y="0">ds since the </tspan><tspan x="603.93" y="0">E</tspan><tspan x="614.89" y="0">r</tspan><tspan x="622.44" y="0">a</tspan><tspan x="633.28" y="0">r</tspan><tspan x="640.83" y="0">d </tspan><tspan x="0" y="30">Escapeme</tspan><tspan x="92.46" y="30">n</tspan><tspan x="104.35" y="30">t</tspan><tspan x="112.71" y="30"> </tspan><tspan x="117.21" y="30">w</tspan><tspan x="133.34" y="30">as i</tspan><tspan x="163.24" y="30">n</tspan><tspan x="175.12" y="30">t</tspan><tspan x="183.48" y="30">r</tspan><tspan x="191.07" y="30">oduced to pianos in 1821</tspan><tspan x="411.75" y="30">,</tspan><tspan x="416.87" y="30">” said KMI </tspan><tspan x="513.34" y="30">f</tspan><tspan x="520.64" y="30">ounde</tspan><tspan class="cls-3" x="578.42" y="30">r</tspan><tspan x="584.64" y="30">, </tspan><tspan x="594.72" y="30">K</tspan><tspan x="606.97" y="30">eith </tspan><tspan x="0" y="60">McMil</tspan><tspan x="57.73" y="60">l</tspan><tspan x="63.73" y="60">en. </tspan><tspan x="96.38" y="60">“</tspan><tspan x="105.09" y="60">QuNexus gives </tspan><tspan x="245.71" y="60">k</tspan><tspan x="255.75" y="60">eyboa</tspan><tspan x="310.39" y="60">r</tspan><tspan x="317.94" y="60">di</tspan><tspan x="334.64" y="60">s</tspan><tspan x="343.9" y="60">ts </tspan><tspan x="366.32" y="60">f</tspan><tspan x="373.62" y="60">orms </tspan><tspan x="425.92" y="60">o</tspan><tspan x="437.69" y="60">f exp</tspan><tspan x="482.81" y="60">r</tspan><tspan x="490.35" y="60">e</tspan><tspan x="500.87" y="60">s</tspan><tspan x="510.13" y="60">sion that</tspan><tspan x="592.47" y="60"> </tspan><tspan x="596.98" y="60">w</tspan><tspan x="613.18" y="60">e</tspan><tspan x="623.69" y="60">r</tspan><tspan x="631.24" y="60">e </tspan><tspan x="0" y="90">on</tspan><tspan x="23.78" y="90">l</tspan><tspan x="29.79" y="90">y a</tspan><tspan x="55.11" y="90">v</tspan><tspan x="65.03" y="90">ailab</tspan><tspan x="109.47" y="90">l</tspan><tspan x="115.48" y="90">e to </tspan><tspan x="155.65" y="90">s</tspan><tspan x="164.91" y="90">tring and horn pla</tspan><tspan x="329.53" y="90">y</tspan><tspan x="339.24" y="90">ers. A</tspan><tspan x="391.31" y="90">l</tspan><tspan x="397.25" y="90">though pla</tspan><tspan x="497.44" y="90">y</tspan><tspan x="507.36" y="90">ful in appea</tspan><tspan x="614.76" y="90">r</tspan><tspan x="622.31" y="90">ance, </tspan><tspan x="0" y="120">it per</tspan><tspan x="47.96" y="120">f</tspan><tspan x="55.26" y="120">orms and </tspan><tspan x="146.78" y="120">f</tspan><tspan x="154.09" y="120">eels li</tspan><tspan x="206.27" y="120">k</tspan><tspan x="216.3" y="120">e a serious in</tspan><tspan x="334.22" y="120">s</tspan><tspan x="343.48" y="120">trume</tspan><tspan x="400.53" y="120">n</tspan><tspan x="412.41" y="120">t</tspan><tspan class="cls-4" x="420.77" y="120">.</tspan><tspan x="423.91" y="120">”</tspan><tspan x="0" y="180">In</tspan><tspan x="17.4" y="180">s</tspan><tspan x="26.67" y="180">tead </tspan><tspan x="72.82" y="180">o</tspan><tspan x="84.59" y="180">f sliders, dials and togg</tspan><tspan x="295.61" y="180">l</tspan><tspan x="301.62" y="180">es, QuNexus uses 25</tspan><tspan x="488.37" y="180"> </tspan><tspan x="492.77" y="180">vivid</tspan><tspan x="534.44" y="180">l</tspan><tspan x="540.44" y="180">y il</tspan><tspan x="565.96" y="180">l</tspan><tspan x="571.97" y="180">uminated </tspan><tspan x="0" y="210">Smart Sensor </tspan><tspan x="128.3" y="210">k</tspan><tspan x="138.33" y="210">eys that a</tspan><tspan x="227.74" y="210">r</tspan><tspan x="235.29" y="210">e unique</tspan><tspan x="313.21" y="210">l</tspan><tspan x="319.21" y="210">y i</tspan><tspan x="338.68" y="210">n</tspan><tspan x="350.56" y="210">te</tspan><tspan x="369.44" y="210">r</tspan><tspan x="376.99" y="210">active and fun to pla</tspan><tspan x="564.99" y="210">y</tspan><tspan x="573.86" y="210">. </tspan><tspan x="0" y="270">“</tspan><tspan x="9.59" y="270">W</tspan><tspan x="29.24" y="270">e a</tspan><tspan x="55.33" y="270">r</tspan><tspan x="62.88" y="270">e</tspan><tspan x="73.39" y="270"> </tspan><tspan x="77.79" y="270">ve</tspan><tspan x="98.29" y="270">r</tspan><tspan x="106.21" y="270">y e</tspan><tspan x="131.21" y="270">x</tspan><tspan x="141.7" y="270">cited about the arri</tspan><tspan x="317.76" y="270">v</tspan><tspan x="327.68" y="270">al </tspan><tspan x="349.31" y="270">o</tspan><tspan x="361.08" y="270">f QuNexus</tspan><tspan x="458.71" y="270">,</tspan><tspan x="463.84" y="270">” said John G</tspan><tspan x="579.73" y="270">r</tspan><tspan x="587.28" y="270">ab</tspan><tspan x="609.83" y="270">o</tspan><tspan x="621.62" y="270">wski, </tspan><tspan x="0" y="300">Senior Di</tspan><tspan x="82.41" y="300">r</tspan><tspan x="89.96" y="300">ector </tspan><tspan x="142.87" y="300">o</tspan><tspan x="154.64" y="300">f Me</tspan><tspan x="195.88" y="300">r</tspan><tspan x="203.43" y="300">chandising at S</tspan><tspan x="341.59" y="300">w</tspan><tspan x="357.78" y="300">eet</tspan><tspan x="387.17" y="300">w</tspan><tspan x="403.3" y="300">ater Sound. “Its inno</tspan><tspan x="591.46" y="300">v</tspan><tspan x="601.38" y="300">ative </tspan><tspan x="0" y="330">design and unique ca</tspan><tspan x="191.51" y="330">p</tspan><tspan x="203.17" y="330">abilities have al</tspan><tspan x="344.6" y="330">r</tspan><tspan x="352.15" y="330">eady t</tspan><tspan x="408.05" y="330">r</tspan><tspan x="415.6" y="330">anslated i</tspan><tspan x="504.91" y="330">n</tspan><tspan x="516.79" y="330">to </tspan><tspan x="541.72" y="330">s</tspan><tspan x="550.98" y="330">t</tspan><tspan x="559.34" y="330">r</tspan><tspan x="566.93" y="330">ong </tspan><tspan x="0" y="360">p</tspan><tspan x="11.7" y="360">r</tspan><tspan x="19.25" y="360">e</tspan><tspan x="30.21" y="360">-o</tspan><tspan x="49.85" y="360">r</tspan><tspan x="57.4" y="360">der demand</tspan><tspan class="cls-4" x="167.46" y="360">.</tspan><tspan x="170.61" y="360">” </tspan><tspan x="0" y="420">P</tspan><tspan x="10.91" y="420">r</tspan><tspan x="18.5" y="420">os love the exp</tspan><tspan x="155.89" y="420">r</tspan><tspan x="163.44" y="420">e</tspan><tspan x="173.95" y="420">s</tspan><tspan x="183.21" y="420">sive p</tspan><tspan x="234.47" y="420">ow</tspan><tspan x="262.46" y="420">er </tspan><tspan x="285.36" y="420">o</tspan><tspan x="297.13" y="420">f po</tspan><tspan x="332.97" y="420">l</tspan><tspan x="338.97" y="420">yphonic aftertouch, channel </tspan><tspan x="0" y="450">r</tspan><tspan x="7.59" y="450">otation, po</tspan><tspan x="109.38" y="450">l</tspan><tspan x="115.39" y="450">y pitch bend, and the ability to incorpo</tspan><tspan x="468.26" y="450">r</tspan><tspan x="475.81" y="450">ate analog </tspan><tspan x="0" y="480">sy</tspan><tspan x="19.07" y="480">n</tspan><tspan x="30.96" y="480">thesizers</tspan><tspan x="113.39" y="480"> </tspan><tspan x="117.9" y="480">with </tspan><tspan x="164.16" y="480">C</tspan><tspan x="177.03" y="480">o</tspan><tspan x="188.87" y="480">n</tspan><tspan x="200.75" y="480">t</tspan><tspan x="209.11" y="480">r</tspan><tspan x="216.7" y="480">ol</tspan><tspan x="234.58" y="480"> </tspan><tspan x="238.76" y="480">V</tspan><tspan x="250.71" y="480">o</tspan><tspan x="262.55" y="480">l</tspan><tspan x="268.49" y="480">tage </tspan><tspan x="313.94" y="480">(</tspan><tspan x="320.96" y="480">C</tspan><tspan x="334.38" y="480">V</tspan><tspan x="347.49" y="480">).</tspan><tspan class="cls-4" x="0" y="540">“</tspan><tspan x="6.62" y="540">A</tspan><tspan x="21.01" y="540">p</tspan><tspan x="32.67" y="540">art </tspan><tspan x="64.26" y="540">f</tspan><tspan x="71.72" y="540">r</tspan><tspan x="79.31" y="540">om being a slick, portab</tspan><tspan x="297.85" y="540">l</tspan><tspan x="303.86" y="540">e USB co</tspan><tspan x="383.41" y="540">n</tspan><tspan x="395.29" y="540">t</tspan><tspan x="403.65" y="540">r</tspan><tspan x="411.24" y="540">ol</tspan><tspan x="429.13" y="540">l</tspan><tspan x="435.13" y="540">er</tspan><tspan x="453.3" y="540"> </tspan><tspan x="457.81" y="540">with the unique </tspan><tspan x="607.04" y="540">k</tspan><tspan x="617.07" y="540">ey ti</tspan><tspan x="655.41" y="540">l</tspan><tspan x="661.35" y="540">t </tspan><tspan x="0" y="570">f</tspan><tspan x="7.3" y="570">ea</tspan><tspan x="28.67" y="570">t</tspan><tspan x="36.98" y="570">u</tspan><tspan x="48.75" y="570">r</tspan><tspan x="56.3" y="570">e, QuNexus is a co</tspan><tspan x="223.23" y="570">n</tspan><tspan x="235.13" y="570">venie</tspan><tspan x="283.09" y="570">n</tspan><tspan x="294.97" y="570">t MIDI to </tspan><tspan x="381.82" y="570">C</tspan><tspan x="395.24" y="570">V and </tspan><tspan x="451.87" y="570">C</tspan><tspan x="465.29" y="570">V to MIDI co</tspan><tspan x="578.1" y="570">n</tspan><tspan x="590" y="570">verte</tspan><tspan class="cls-3" x="637.04" y="570">r</tspan><tspan x="643.27" y="570">, </tspan><tspan x="0" y="600">and is ext</tspan><tspan x="87.76" y="600">r</tspan><tspan x="95.3" y="600">eme</tspan><tspan x="135.08" y="600">l</tspan><tspan x="141.08" y="600">y useful </tspan><tspan x="217.29" y="600">f</tspan><tspan x="224.59" y="600">or i</tspan><tspan x="253.81" y="600">n</tspan><tspan x="265.69" y="600">teg</tspan><tspan x="295.57" y="600">r</tspan><tspan x="303.11" y="600">ating my analog gear i</tspan><tspan x="505.2" y="600">n</tspan><tspan x="517.08" y="600">to the digital </tspan><tspan x="0" y="630">w</tspan><tspan x="16.19" y="630">or</tspan><tspan x="35.68" y="630">l</tspan><tspan x="41.69" y="630">d</tspan><tspan x="53.39" y="630">,</tspan><tspan x="58.52" y="630">” said e</tspan><tspan x="124.41" y="630">l</tspan><tspan x="130.41" y="630">ect</tspan><tspan x="159.1" y="630">r</tspan><tspan x="166.69" y="630">onic musician, DJ and </tspan><tspan x="366.47" y="630">r</tspan><tspan x="374.02" y="630">emi</tspan><tspan x="408.27" y="630">x</tspan><tspan x="418.76" y="630">e</tspan><tspan class="cls-3" x="429.28" y="630">r</tspan><tspan x="435.51" y="630">, Jonah Sharp aka </tspan><tspan x="0" y="660">S</tspan><tspan x="10.98" y="660">p</tspan><tspan x="22.64" y="660">acetime </tspan><tspan x="101.15" y="660">C</tspan><tspan x="114.02" y="660">o</tspan><tspan x="125.86" y="660">n</tspan><tspan x="137.74" y="660">tinuum.</tspan><tspan x="0" y="720">“</tspan><tspan x="8.71" y="720">QuNexus is a dope piece </tspan><tspan x="236.16" y="720">o</tspan><tspan x="247.93" y="720">f equipme</tspan><tspan x="340.16" y="720">n</tspan><tspan x="352.04" y="720">t </tspan><tspan x="365.13" y="720">f</tspan><tspan x="372.43" y="720">or playing cho</tspan><tspan x="501.26" y="720">r</tspan><tspan x="508.81" y="720">ds and </tspan><tspan x="573.8" y="720">l</tspan><tspan x="579.8" y="720">ead lines, </tspan><tspan x="0" y="750">and I </tspan><tspan x="49.41" y="750">r</tspan><tspan x="56.96" y="750">eal</tspan><tspan x="84.37" y="750">l</tspan><tspan x="90.38" y="750">y li</tspan><tspan x="115.89" y="750">k</tspan><tspan x="125.93" y="750">e h</tspan><tspan x="153.12" y="750">o</tspan><tspan x="164.91" y="750">w I can exp</tspan><tspan x="266.22" y="750">r</tspan><tspan x="273.76" y="750">e</tspan><tspan x="284.28" y="750">s</tspan><tspan x="293.54" y="750">s</tspan><tspan x="302.87" y="750"> </tspan><tspan x="307.38" y="750">with the ti</tspan><tspan x="402.55" y="750">l</tspan><tspan x="408.49" y="750">t pitch bend and get c</tspan><tspan x="607.36" y="750">r</tspan><tspan x="614.91" y="750">eative </tspan><tspan x="0" y="780">li</tspan><tspan x="11.04" y="780">k</tspan><tspan x="21.08" y="780">e a guitar or horn pla</tspan><tspan x="212.19" y="780">y</tspan><tspan x="221.89" y="780">e</tspan><tspan class="cls-3" x="232.4" y="780">r</tspan><tspan x="238.63" y="780">, and do things pianos ca</tspan><tspan x="464.55" y="780">n</tspan><tspan x="476.01" y="780">’t d</tspan><tspan x="505.99" y="780">o,</tspan><tspan x="522.73" y="780">” said piani</tspan><tspan x="622.59" y="780">s</tspan><tspan x="631.85" y="780">t, MC </tspan><tspan x="0" y="810">and p</tspan><tspan x="50.93" y="810">r</tspan><tspan x="58.52" y="810">oduce</tspan><tspan class="cls-3" x="114.16" y="810">r</tspan><tspan x="120.38" y="810">, </tspan><tspan x="130.46" y="810">K</tspan><tspan x="142.71" y="810">ev Choice.</tspan><tspan x="0" y="870">“</tspan><tspan x="8.71" y="870">QuNexus is so</tspan><tspan x="138.99" y="870">l</tspan><tspan x="144.93" y="870">ving a big p</tspan><tspan x="247.3" y="870">r</tspan><tspan x="254.89" y="870">ob</tspan><tspan x="278.43" y="870">l</tspan><tspan x="284.43" y="870">em </tspan><tspan x="318.42" y="870">f</tspan><tspan x="325.73" y="870">or a lot </tspan><tspan x="396.5" y="870">o</tspan><tspan x="408.27" y="870">f laptop musicians</tspan><tspan x="577.56" y="870"> </tspan><tspan x="582.07" y="870">who</tspan><tspan x="622.08" y="870"> </tspan><tspan x="626.59" y="870">w</tspan><tspan x="642.72" y="870">a</tspan><tspan x="653.57" y="870">n</tspan><tspan x="665.45" y="870">t </tspan><tspan x="0" y="900">a </tspan><tspan x="15.58" y="900">r</tspan><tspan x="23.12" y="900">eal</tspan><tspan x="50.53" y="900">l</tspan><tspan x="56.54" y="900">y portab</tspan><tspan x="133.12" y="900">l</tspan><tspan x="139.13" y="900">e, but p</tspan><tspan x="207.98" y="900">ow</tspan><tspan x="235.97" y="900">erful, </tspan><tspan x="289.6" y="900">k</tspan><tspan x="299.63" y="900">eyboa</tspan><tspan x="354.28" y="900">r</tspan><tspan x="361.83" y="900">d co</tspan><tspan x="399.91" y="900">n</tspan><tspan x="411.79" y="900">t</tspan><tspan x="420.15" y="900">r</tspan><tspan x="427.74" y="900">ol</tspan><tspan x="445.62" y="900">l</tspan><tspan x="451.63" y="900">e</tspan><tspan class="cls-3" x="462.15" y="900">r</tspan><tspan x="468.37" y="900">,</tspan><tspan x="473.5" y="900">” said </tspan><tspan x="528.87" y="900">r</tspan><tspan x="536.42" y="900">eco</tspan><tspan x="568.58" y="900">r</tspan><tspan x="576.13" y="900">ding arti</tspan><tspan x="652.36" y="900">s</tspan><tspan x="661.62" y="900">t </tspan><tspan x="0" y="930">and sound designe</tspan><tspan class="cls-3" x="170.54" y="930">r</tspan><tspan x="176.77" y="930">, Richa</tspan><tspan x="236.72" y="930">r</tspan><tspan x="244.27" y="930">d Devine.</tspan><tspan x="0" y="990">L</tspan><tspan x="10.01" y="990">earn mo</tspan><tspan x="86.28" y="990">r</tspan><tspan class="cls-5" x="93.83" y="990">e at  </tspan><tspan x="137.74" y="990">K</tspan><tspan x="149.99" y="990">eith McMil</tspan><tspan x="248.26" y="990">l</tspan><tspan x="254.27" y="990">en In</tspan><tspan x="298.86" y="990">s</tspan><tspan x="308.13" y="990">trume</tspan><tspan x="365.17" y="990">n</tspan><tspan x="377.05" y="990">ts.</tspan></text><g class="cls-6"><g class="cls-7"><g class="cls-8"><image width="2250" height="1500" transform="matrix(-0.82, 0, 0, 0.82, 975.91, -182.32)" xlink:href="../images/F3/_MG_2850.jpg"/></g></g></g><path class="cls-9" d="M113.48,71.59a6,6,0,0,1-2.93-.71L101,65.37a6.39,6.39,0,0,1-2.92-5.07v-11A6.41,6.41,0,0,1,101,44.18l9.56-5.51a6.51,6.51,0,0,1,5.86,0L126,44.18a6.42,6.42,0,0,1,2.92,5.08v11A6.4,6.4,0,0,1,126,65.37l-9.56,5.51A6,6,0,0,1,113.48,71.59Zm0-31.75a4.08,4.08,0,0,0-2,.46l-9.56,5.52a4.51,4.51,0,0,0-2,3.43v11a4.53,4.53,0,0,0,2,3.44l9.56,5.51a4.66,4.66,0,0,0,4,0L125,63.72a4.49,4.49,0,0,0,2-3.43v-11a4.5,4.5,0,0,0-2-3.43l-9.56-5.52A4.08,4.08,0,0,0,113.48,39.85Z"/><path class="cls-10" d="M232.8,53.92l-13-7.54,13-7.53a0.95,0.95,0,1,0-.94-1.64l-14,8.07-14-8.07a0.95,0.95,0,0,0-.94,1.64l13,7.53-13,7.54a0.94,0.94,0,0,0,.47,1.76,1,1,0,0,0,.47-0.12l14-8.08,14,8.08a1,1,0,0,0,.48.12A0.94,0.94,0,0,0,232.8,53.92Z"/><path class="cls-10" d="M101.55,37.21l-12-6.94a6.42,6.42,0,0,0-5.86,0l-9.56,5.52a6.38,6.38,0,0,0-2.92,5.07v11A6.37,6.37,0,0,0,74.12,57l12,6.94a1,1,0,0,0,.47.12,0.95,0.95,0,0,0,.48-1.77l-12-6.93a4.52,4.52,0,0,1-2-3.43v-11a3.43,3.43,0,0,1,.21-1.09L86.13,47.2a0.91,0.91,0,0,0,.47.12,0.94,0.94,0,0,0,.48-1.76L74.25,38.12a3.25,3.25,0,0,1,.82-0.69l9.56-5.52a4.5,4.5,0,0,1,4,0l12,6.93A0.95,0.95,0,0,0,101.55,37.21Z"/><path class="cls-10" d="M162.67,55.68a0.94,0.94,0,0,1-.95-0.94V40.86a4.53,4.53,0,0,0-2-3.43l-9.56-5.51a4.53,4.53,0,0,0-4,0l-9.56,5.52a4.51,4.51,0,0,0-2,3.43V54.73a0.95,0.95,0,0,1-1.89,0V40.86a6.4,6.4,0,0,1,2.93-5.07l9.56-5.52a6.39,6.39,0,0,1,5.86,0l9.56,5.51a6.39,6.39,0,0,1,2.93,5.07V54.73A0.94,0.94,0,0,1,162.67,55.68Z"/><path class="cls-10" d="M197.89,37.55a1,1,0,0,0-1.3-.35l-14,8.07-14-8.07a0.95,0.95,0,1,0-.95,1.64l14,8.11V63.13a0.95,0.95,0,1,0,1.89,0V46.89l13.94-8A1,1,0,0,0,197.89,37.55Z"/><path class="cls-10" d="M66.58,37.21l-12-6.94a6.42,6.42,0,0,0-5.86,0l-9.56,5.52a6.39,6.39,0,0,0-2.93,5.07v11A6.38,6.38,0,0,0,39.14,57l12,6.94a1,1,0,0,0,.47.12,0.94,0.94,0,0,0,.82-0.47,1,1,0,0,0-.34-1.29l-12-6.93a4.52,4.52,0,0,1-2-3.43v-11a3.43,3.43,0,0,1,.21-1.09L51.15,47.2a0.91,0.91,0,0,0,.47.12,0.93,0.93,0,0,0,.82-0.47,1,1,0,0,0-.34-1.3L39.27,38.13a3.34,3.34,0,0,1,.82-0.7l9.56-5.52a4.51,4.51,0,0,1,4,0l12,6.93a1,1,0,0,0,1.29-.35A0.94,0.94,0,0,0,66.58,37.21Z"/><polygon class="cls-11" points="0 0 0 93.11 256.95 93.11 310.7 0 0 0"/><path class="cls-9" d="M113.48,71.59a6,6,0,0,1-2.93-.71L101,65.37a6.39,6.39,0,0,1-2.92-5.07v-11A6.41,6.41,0,0,1,101,44.18l9.56-5.51a6.51,6.51,0,0,1,5.86,0L126,44.18a6.42,6.42,0,0,1,2.92,5.08v11A6.4,6.4,0,0,1,126,65.37l-9.56,5.51A6,6,0,0,1,113.48,71.59Zm0-31.75a4.08,4.08,0,0,0-2,.46l-9.56,5.52a4.51,4.51,0,0,0-2,3.43v11a4.53,4.53,0,0,0,2,3.44l9.56,5.51a4.66,4.66,0,0,0,4,0L125,63.72a4.49,4.49,0,0,0,2-3.43v-11a4.5,4.5,0,0,0-2-3.43l-9.56-5.52A4.08,4.08,0,0,0,113.48,39.85Z"/><path class="cls-10" d="M232.8,53.92l-13-7.54,13-7.53a0.95,0.95,0,1,0-.94-1.64l-14,8.07-14-8.07a0.95,0.95,0,0,0-.94,1.64l13,7.53-13,7.54a0.94,0.94,0,0,0,.47,1.76,1,1,0,0,0,.47-0.12l14-8.08,14,8.08a1,1,0,0,0,.48.12A0.94,0.94,0,0,0,232.8,53.92Z"/><path class="cls-10" d="M101.55,37.21l-12-6.94a6.42,6.42,0,0,0-5.86,0l-9.56,5.52a6.38,6.38,0,0,0-2.92,5.07v11A6.37,6.37,0,0,0,74.12,57l12,6.94a1,1,0,0,0,.47.12,0.95,0.95,0,0,0,.48-1.77l-12-6.93a4.52,4.52,0,0,1-2-3.43v-11a3.43,3.43,0,0,1,.21-1.09L86.13,47.2a0.91,0.91,0,0,0,.47.12,0.94,0.94,0,0,0,.48-1.76L74.25,38.12a3.25,3.25,0,0,1,.82-0.69l9.56-5.52a4.5,4.5,0,0,1,4,0l12,6.93A0.95,0.95,0,0,0,101.55,37.21Z"/><path class="cls-10" d="M162.67,55.68a0.94,0.94,0,0,1-.95-0.94V40.86a4.53,4.53,0,0,0-2-3.43l-9.56-5.51a4.53,4.53,0,0,0-4,0l-9.56,5.52a4.51,4.51,0,0,0-2,3.43V54.73a0.95,0.95,0,0,1-1.89,0V40.86a6.4,6.4,0,0,1,2.93-5.07l9.56-5.52a6.39,6.39,0,0,1,5.86,0l9.56,5.51a6.39,6.39,0,0,1,2.93,5.07V54.73A0.94,0.94,0,0,1,162.67,55.68Z"/><path class="cls-10" d="M197.89,37.55a1,1,0,0,0-1.3-.35l-14,8.07-14-8.07a0.95,0.95,0,1,0-.95,1.64l14,8.11V63.13a0.95,0.95,0,1,0,1.89,0V46.89l13.94-8A1,1,0,0,0,197.89,37.55Z"/><path class="cls-10" d="M66.58,37.21l-12-6.94a6.42,6.42,0,0,0-5.86,0l-9.56,5.52a6.39,6.39,0,0,0-2.93,5.07v11A6.38,6.38,0,0,0,39.14,57l12,6.94a1,1,0,0,0,.47.12,0.94,0.94,0,0,0,.82-0.47,1,1,0,0,0-.34-1.29l-12-6.93a4.52,4.52,0,0,1-2-3.43v-11a3.43,3.43,0,0,1,.21-1.09L51.15,47.2a0.91,0.91,0,0,0,.47.12,0.93,0.93,0,0,0,.82-0.47,1,1,0,0,0-.34-1.3L39.27,38.13a3.34,3.34,0,0,1,.82-0.7l9.56-5.52a4.51,4.51,0,0,1,4,0l12,6.93a1,1,0,0,0,1.29-.35A0.94,0.94,0,0,0,66.58,37.21Z"/></svg>