<?xml version="1.0" encoding="utf-8"?>
<!-- Generator: Adobe Illustrator 15.0.0, SVG Export Plug-In . SVG Version: 6.00 Build 0)  -->
<!DOCTYPE svg PUBLIC "-//W3C//DTD SVG 1.1//EN" "http://www.w3.org/Graphics/SVG/1.1/DTD/svg11.dtd">
<svg version="1.1" id="Layer_1" xmlns="http://www.w3.org/2000/svg" xmlns:xlink="http://www.w3.org/1999/xlink" x="0px" y="0px"
	 width="27.193px" height="26.824px" viewBox="0 0 27.193 26.824" enable-background="new 0 0 27.193 26.824" xml:space="preserve">
<g>
	<path fill="#80D443" d="M5.332,9.583c0.166,0.093,4.125,2.278,8.371,2.278c4.247,0,8.206-2.185,8.372-2.278
		c0.402-0.226,0.549-0.732,0.325-1.137c-0.227-0.403-0.729-0.551-1.134-0.325c-0.036,0.019-3.745,2.065-7.563,2.065
		c-3.805,0-7.524-2.046-7.562-2.067C5.736,7.895,5.23,8.043,5.008,8.446C4.785,8.851,4.928,9.357,5.332,9.583"/>
	<path fill="#80D443" d="M21.446,12.627c-0.035,0.014-3.822,1.057-7.743,1.057c-3.908,0-7.707-1.043-7.744-1.057
		c-0.441-0.121-0.902,0.137-1.025,0.584c-0.125,0.447,0.135,0.908,0.578,1.033c0.163,0.047,4.049,1.115,8.191,1.115
		c4.146,0,8.028-1.068,8.19-1.115c0.442-0.125,0.702-0.59,0.579-1.033C22.353,12.766,21.894,12.506,21.446,12.627"/>
	<path fill="#80D443" d="M21.671,17.184H5.736c-0.461,0-0.832,0.373-0.832,0.838c0,0.461,0.371,0.834,0.832,0.834h15.935
		c0.461,0,0.834-0.373,0.834-0.834C22.505,17.557,22.132,17.184,21.671,17.184"/>
</g>
</svg>
