<?xml version="1.0" encoding="utf-8"?>
<!-- Generator: Adobe Illustrator 15.0.0, SVG Export Plug-In . SVG Version: 6.00 Build 0)  -->
<!DOCTYPE svg PUBLIC "-//W3C//DTD SVG 1.1//EN" "http://www.w3.org/Graphics/SVG/1.1/DTD/svg11.dtd">
<svg version="1.1" id="Layer_1" xmlns="http://www.w3.org/2000/svg" xmlns:xlink="http://www.w3.org/1999/xlink" x="0px" y="0px"
	 width="27.193px" height="26.824px" viewBox="0 0 27.193 26.824" enable-background="new 0 0 27.193 26.824" xml:space="preserve">
<path fill="#80D443" d="M15.557,23.309c-1.67,0-3.03-1.358-3.03-3.029V18.9H9.769v1.379c0,1.671-1.358,3.029-3.031,3.029
	c-1.67,0-3.03-1.358-3.03-3.029c0-1.67,1.36-3.029,3.03-3.029H8.12v-2.759H6.737c-1.67,0-3.03-1.359-3.03-3.029s1.36-3.03,3.03-3.03
	h1.382V7.068c0-1.687,1.356-3.045,3.026-3.045c1.672,0,3.031,1.359,3.031,3.03v1.379h2.759v-1.38c0-1.671,1.356-3.03,3.026-3.03
	s3.031,1.359,3.031,3.03c0,1.67-1.361,3.029-3.031,3.029h-1.379v2.759h1.379c1.67,0,3.031,1.359,3.031,3.029
	c0,1.671-1.361,3.029-3.031,3.029h-1.379v1.363C18.584,21.95,17.227,23.309,15.557,23.309 M14.178,18.9v1.379
	c0,0.761,0.614,1.38,1.379,1.38c0.76,0,1.379-0.619,1.379-1.38V18.9H14.178z M6.737,18.9c-0.76,0-1.379,0.617-1.379,1.379
	c0,0.761,0.619,1.38,1.379,1.38c0.761,0,1.382-0.619,1.382-1.38V18.9H6.737z M18.584,17.25h1.379c0.763,0,1.379-0.619,1.379-1.38
	s-0.616-1.379-1.379-1.379h-1.379V17.25z M14.178,17.25h2.758v-2.76h-2.758V17.25z M9.769,17.25h2.758v-2.76H9.769V17.25z
	 M14.178,12.84h2.758v-2.759h-2.758V12.84z M9.769,12.84h2.758v-2.759H9.769V12.84z M6.752,10.082c-0.773,0-1.394,0.619-1.394,1.38
	c0,0.76,0.619,1.379,1.379,1.379h1.382v-2.759H6.752z M18.584,8.431h1.379c0.763,0,1.379-0.618,1.379-1.379
	c0-0.761-0.616-1.38-1.379-1.38c-0.758,0-1.379,0.619-1.379,1.38V8.431z M9.769,8.431h2.758V7.052c0-0.761-0.618-1.38-1.381-1.38
	c-0.76,0-1.377,0.619-1.377,1.38V8.431z"/>
</svg>
