<?xml version="1.0" encoding="utf-8"?>
<!-- Generator: Adobe Illustrator 15.0.0, SVG Export Plug-In . SVG Version: 6.00 Build 0)  -->
<!DOCTYPE svg PUBLIC "-//W3C//DTD SVG 1.1//EN" "http://www.w3.org/Graphics/SVG/1.1/DTD/svg11.dtd">
<svg version="1.1" id="Layer_1" xmlns="http://www.w3.org/2000/svg" xmlns:xlink="http://www.w3.org/1999/xlink" x="0px" y="0px"
	 width="27.193px" height="26.824px" viewBox="0 0 27.193 26.824" enable-background="new 0 0 27.193 26.824" xml:space="preserve">
<path fill="#80D443" d="M9.406,14.163c1.324-1.479,1.801-4.012,1.086-5.775L9.418,5.73c-0.174-0.426-0.66-0.634-1.086-0.458
	c-0.426,0.172-0.631,0.661-0.457,1.09L8.949,9.02c0.469,1.159,0.103,3.036-0.781,4.022l-0.182,0.203
	c-1.324,1.479-1.801,4.01-1.084,5.774l1.076,2.654c0.131,0.324,0.443,0.52,0.771,0.52c0.102,0,0.213-0.021,0.314-0.061
	c0.428-0.176,0.629-0.662,0.459-1.092l-1.076-2.656c-0.469-1.154-0.105-3.031,0.777-4.02L9.406,14.163z"/>
<path fill="#80D443" d="M14.047,14.163c1.319-1.479,1.8-4.012,1.086-5.775L14.055,5.73c-0.171-0.426-0.655-0.634-1.086-0.458
	c-0.429,0.172-0.628,0.661-0.455,1.09l1.074,2.657c0.468,1.159,0.104,3.036-0.781,4.022l-0.183,0.203
	c-1.319,1.479-1.799,4.01-1.086,5.775l1.078,2.653c0.131,0.324,0.444,0.521,0.774,0.521c0.103,0,0.211-0.021,0.312-0.062
	c0.427-0.176,0.632-0.662,0.457-1.092l-1.074-2.656c-0.469-1.153-0.106-3.03,0.777-4.02L14.047,14.163z"/>
<path fill="#80D443" d="M18.688,14.163c1.318-1.479,1.799-4.012,1.084-5.775L18.695,5.73c-0.172-0.426-0.658-0.634-1.086-0.458
	c-0.426,0.172-0.633,0.661-0.457,1.09l1.076,2.657c0.467,1.159,0.102,3.036-0.781,4.022l-0.182,0.203
	c-1.324,1.479-1.805,4.01-1.089,5.775l1.075,2.653c0.135,0.324,0.446,0.521,0.774,0.521c0.104,0,0.211-0.021,0.312-0.062
	c0.432-0.176,0.635-0.662,0.459-1.092l-1.072-2.656c-0.473-1.153-0.105-3.03,0.775-4.02L18.688,14.163z"/>
</svg>
